<svg version="1.1" id="FINAL" xmlns="http://www.w3.org/2000/svg" xmlns:xlink="http://www.w3.org/1999/xlink" x="0px" y="0px"
	 viewBox="0 0 405.02 131.35" style="enable-background:new 0 0 405.02 131.35;" xml:space="preserve">
<style type="text/css">
	.st0{fill-rule:evenodd;clip-rule:evenodd;fill:#FFFFFF;}
	.st1{fill:#FFFFFF;}
</style>
<g>
	<g>
		<path class="st0" d="M185.94,3.42c-0.48,2.37-1.14,4.36-2.34,6.26c-0.5,0.79-1.47,1.19-1.98,2.03c-0.66,1.06-1.2,3.18-1.26,4.79
			c-0.03,0.84,0.53,2.75,0.54,3.68c0.01,1.36-0.66,2.94-0.72,4.6c-0.11,2.98,0.74,6.3,0.72,9.39c-0.02,4.28-1.92,10.45-6.48,9.21
			c0.07-1.56,1.76-1.53,2.7-2.76c1.05-1.36,1.96-5.35,1.8-8.1c-0.05-0.83-0.62-1.8-0.72-2.76c-0.45-4.47,1.95-8.45-1.08-9.76
			c-0.78-5.12,1.12-9.02,3.06-11.97c-4.8,1.6-8.91-1.85-13.14-2.39c-2.4-0.31-3.7,1.07-5.22,0.74c-0.71-1.62,1.44-1.82,2.52-2.21
			c-0.9-1.41-5.55-1.45-5.22-3.5c0.25-1.56,2.15,0.12,3.42,0.18c1.75,0.09,4.13-1.31,6.3-0.37c2.81,1.22,5.39,4.96,8.46,5.89
			C180.68,7.4,183.1,3.3,185.94,3.42z"/>
		<path class="st0" d="M123.66,13.55c2.62-1.13,5.3-1.04,7.56-2.39c2.83-1.69,4.62-4.01,7.2-5.34c4.25-2.18,11.57-4.93,18.18-2.95
			c1.59,0.48,3.76,1.18,3.6,2.76c-0.22,2.16-4.1,1.11-5.04,1.11c-3.65-0.02-6.99,0.62-9.9,1.84c-5.15,2.16-8.97,5.94-16.02,7
			C127.7,15.81,123.55,16.72,123.66,13.55z M149.94,3.98c-7.8,0.66-13.31,5.69-18.36,9.03c7.79-1.88,14.64-9.33,25.38-8.29
			C154.54,4.02,152.14,3.79,149.94,3.98z"/>
		<path class="st0" d="M146.7,8.58c0.64,0.27,1.07,0.75,1.44,1.29c-1.42,3.4-4.38,5.76-7.2,7.92c-4.5,3.45-10.44,8.35-19.08,7.37
			c-3.24-0.37-7.13-2.26-10.44-0.74c-1.77,0.82-2.54,4.08-5.04,3.32c-0.13-3.89,2.85-7.57,6.12-9.21c1.81-0.9,4.72-1.47,6.66-1.66
			c3.77-0.36,9.07,0.82,12.78-0.18C137.5,15.18,142.2,11.4,146.7,8.58z M128.34,19.26c-6.33,0.46-13.89-1.26-16.74,2.95
			c3.55-1.75,7.29,0.31,10.62,0.74c8.22,1.07,14.08-4.21,18.36-7.92C137.43,16.75,133.36,18.9,128.34,19.26z"/>
		<path class="st0" d="M166.68,19.45c-0.49,3.61-4.26,5.14-3.6,9.03c0.33,1.97,2.92,2.05,4.32,3.68c1.85,2.16,1.06,4.66,0.72,7.92
			c-2.53,0.19-1.03-3.04-1.62-4.97c-0.73-2.41-5.06-3.42-5.58-6.08C160.18,25.22,163.42,19.59,166.68,19.45z"/>
		<path class="st0" d="M150.12,52.23c-1.14,0.12-1.54-0.51-2.16-0.92c-0.89-6.01,1.43-10.48,3.24-14.92
			c1.61-3.94,2.44-7.55,5.22-9.39c0.31-0.2,1.5-0.95,1.8,0.74c0.18,0.99-1.69,3.3-2.34,4.6C153.13,37.89,150.85,44.95,150.12,52.23z
			"/>
		<path class="st0" d="M128.16,27.55c0.28,1.81-1.96,2.44-3.42,3.13c-1.46,0.69-3.01,1.44-4.5,2.03c-3.03,1.19-7.53,2.95-10.26,2.76
			c-1.13-0.08-3.95-0.82-3.24-2.76c5.41,0.04,14.99-2.5,19.62-4.97C126.71,27.55,127.3,27.02,128.16,27.55z"/>
		<path class="st0" d="M68.76,30.32c-1.11,1.12-2.67,1.47-3.96,2.21c-2.14,1.24-3.73,2.95-5.4,4.6
			c-10.58-0.47-18.58,2.21-25.38,5.71c-4.33,2.23-8.02,4.78-12.78,6.81c-1.33,0.57-2.86,1.87-4.5,1.11c0.62-2.05,2.87-2.54,4.32-3.5
			c5.68-3.76,9.82-9.48,15.84-13.08c-8.52,1.41-14.02,4.89-19.26,9.76c-3.7,3.44-7.5,7.08-12.42,9.39C3.76,54.03,1.84,55.16,0,54.63
			c0.23-1.92,3.18-2.29,4.86-3.32c5.01-3.05,6.18-9.27,10.26-13.45C25.16,27.6,50.54,25.68,68.76,30.32z M30.96,41.55
			c-0.07,0.2-0.22,0.44,0,0.18c5.74-3.6,13.43-6.78,22.32-7.18c1.5-0.07,3.55,0.54,5.04,0.18c1.07-0.25,3.01-2.64,3.24-3.13
			c-20.07-3.72-42.4-0.02-49.14,13.63c0.53,0.27,0.97-0.47,1.26-0.74c3.67-3.47,6.87-6.38,11.7-8.66c5.26-2.48,11.76-4.2,18.72-3.68
			C39.64,35.2,34.76,37.82,30.96,41.55z"/>
		<path class="st0" d="M79.92,33.82c-0.51,1.05-2.22,0.46-3.06,0.55c-6.07,0.67-12.7,5.04-16.38,8.66
			c-5.05,4.97-8.48,11.28-9.36,19.89c-2.45-0.89-1.62-3.74-1.26-5.53c2.02-10.12,7.67-17.48,15.48-21.92
			c3.1-1.76,7.49-3.76,11.16-3.68C77.89,31.82,79.75,32.11,79.92,33.82z"/>
		<path class="st0" d="M28.08,55.18c-0.77,1.16-2.03,0.89-3.06,1.29C21.1,58,17.38,64.45,14.94,67.89c-1.55,2.19-2.94,4.3-4.68,6.08
			c-1.65,1.69-3.56,3.67-6.12,4.05c-0.23-2.4,1.37-2.21,2.52-3.31c2.11-2.04,4.39-5.3,5.94-8.29c1.76-3.4,2.84-6.89,5.04-9.21
			c1.31-1.38,3.5-3.14,5.04-3.68C24.6,52.84,27.85,52.75,28.08,55.18z"/>
		<path class="st0" d="M78.84,81.52c0.94-1.95,3.24-2.49,4.86-3.87c1.82-1.55,4.34-4.55,4.68-7c0.71-5.06-4.77-6.46-5.04-10.87
			c1.15-1.84,2.45,1.46,3.06,2.39c1.82,2.8,4.47,3.99,4.14,8.29c-0.34,4.38-3.72,7.08-6.48,9.39
			C82.61,81.07,80.53,83.35,78.84,81.52z"/>
		<path class="st0" d="M149.04,60.15c0.68,2.85-1.22,5.23-2.88,7.37c-2.57,3.3-5.31,5.26-8.64,7.74c-1.54,1.14-3.55,2.8-5.4,1.84
			c0.28-2.37,2.7-2.99,4.14-4.05c4.73-3.5,8.52-7.82,11.7-13.26C148.38,59.85,148.7,60.01,149.04,60.15z"/>
		<path class="st0" d="M65.34,67.71c0.44,2.83,3.17,5.4,3.42,8.84c0.31,4.26-1.31,8.59-3.6,11.05c-1.89-0.6-0.8-2.18-0.36-3.32
			c0.91-2.38,1.82-6.22,0.72-9.76c-0.68-2.2-2.74-3.4-2.7-5.89C63.19,67.84,64.06,67.56,65.34,67.71z"/>
		<path class="st0" d="M98.28,70.84c3.4-0.85,6.08,1.03,9.54,1.29c5.88,0.44,11.98-1.31,16.56-3.5c0.15-0.07,0.54-0.24,0.72-0.18
			c2.18,0.71-0.43,2.54-1.62,3.13c-4.82,2.38-12.78,3.98-19.44,2.76C101.11,73.8,98.75,73.83,98.28,70.84z"/>
		<path class="st0" d="M50.04,70.84c0.24,0,0.48,0,0.72,0c0.76,2.81-1.17,5.48-2.52,7.55c-2.81,4.34-6.2,7.83-10.44,10.87
			c-2,1.43-4.35,3.25-6.84,3.31c-0.37-3.04,2.68-3.9,4.32-4.97c3.75-2.47,7.02-5.73,9.72-9.39C46.68,75.92,48.18,73.06,50.04,70.84z
			"/>
		<path class="st0" d="M167.4,94.78c-2.21-6.44-8.07-10.91-12.78-16.02c-1.29-1.4-3.39-3.82-2.7-5.34c0.13-0.17,0.33-0.28,0.54-0.37
			c2.39,0.69,3.92,3.35,5.76,5.53c2.53,2.99,5.56,5.57,8.1,9.03C167.75,89.54,170.88,93.77,167.4,94.78z"/>
		<path class="st0" d="M118.8,79.68c-1.18,5.5-3.77,10.97-6.12,16.58c-0.47,1.12-1.7,4.96-2.7,4.97c-1.38,0.02-1-2.1-0.9-2.58
			c0.6-2.78,2.39-5.58,3.42-8.1c1.89-4.62,2.97-8.17,5.04-11.24C118.2,79.19,118.5,79.43,118.8,79.68z"/>
		<path class="st0" d="M160.2,93.68c-2.32,0.72-2.85-1.68-4.32-2.95c-2.94-2.52-7.75-4.89-11.52-7.18
			c-1.36-0.83-4.24-1.93-2.88-3.68c5.56,1.27,11.65,5.42,15.84,8.84C158.82,89.93,161.03,91.21,160.2,93.68z"/>
		<path class="st0" d="M127.26,80.78c0.18,0,0.36,0,0.54,0c0.32,2.34-1.41,4.45-2.52,6.45c-2.24,4.04-4.28,8.24-6.3,12.89
			c-0.92,2.11-1.68,4.56-3.42,6.08c-2.58-1.44-0.26-4.41,0.54-6.26c0.91-2.1,2.02-4.34,3.06-6.26
			C121.65,89.07,124.14,83.36,127.26,80.78z"/>
		<path class="st0" d="M39.6,97.36c-0.35-2.18,2.12-4.05,3.96-5.53c2.03-1.63,4.12-3.07,6.12-3.68c0.71-0.22,1.39,0.42,1.44,0.92
			c0.11,1-2.31,1.82-2.88,2.21c-0.98,0.66-2.23,1.63-2.88,2.21C43.44,95.22,42.3,97.59,39.6,97.36z"/>
		<path class="st0" d="M63.36,88.89c-0.84,2.2-3.41,2.04-3.78,4.42c-0.38,2.41,1.88,6.17,3.24,8.47c3.13,5.28,6.81,8.24,10.08,13.26
			c2.87,4.4,5.33,7.43,3.24,13.08c-0.44,1.19-0.68,2.88-2.7,2.58c2.24-9.15-3.18-14.41-7.74-20.26c-3.58-4.59-8.03-9.21-8.64-14.18
			c-0.38-3.07,0.4-5.5,1.98-6.81C59.86,88.76,62.21,87.74,63.36,88.89z"/>
		<path class="st0" d="M73.08,89.99c-0.08,1.38-1.41,2.03-1.62,3.68c-0.23,1.76,0.72,4.02-1.62,4.05
			C67.44,95.22,69.55,87.95,73.08,89.99z"/>
		<path class="st0" d="M176.22,115.96c-2.62-5.97-5.99-11.19-6.66-19.16c2.65-2.01,2.75,0.65,3.6,3.68
			c1.22,4.32,3.28,9.8,4.86,12.89c0.96,1.88,3.08,4.4,2.7,5.71c-0.16,0.57-1.06,0.92-1.26,0.92
			C177.53,120.05,177.86,116.79,176.22,115.96z"/>
		<path class="st0" d="M16.56,129.23c-1.11-0.52-1.87,0.7-2.7-0.18c4.31-10.39,11.66-17.66,14.04-30.02
			c4.82-0.25,0.83,6.68-0.36,9.39C24.48,115.4,19.69,123.56,16.56,129.23z"/>
		<path class="st0" d="M113.94,111.91c-0.35,5.39-5.69,9.84-4.5,16.95c0.14,0.85,0.91,1.2,0.72,2.39c-2.63,0.72-3.25-2.89-3.24-4.97
			c0.03-4.52,3.56-11.62,5.22-14.18C112.44,111.63,113.2,111.13,113.94,111.91z"/>
	</g>
	<g>
		<g>
			<path class="st1" d="M225.27,119.09c0.19,0.64,0.51,1.1,0.97,1.37c0.45,0.27,1.12,0.44,2.02,0.51c0.19,0.67,0.29,1.66,0.29,2.94
				c-1.67-0.1-3.94-0.14-6.8-0.14c-3.02,0-5.53,0.05-7.52,0.14c0-1.12,0.11-2.11,0.34-2.94c0.9-0.06,1.57-0.23,2.03-0.51
				c0.45-0.27,0.76-0.73,0.94-1.37c0.18-0.64,0.26-1.62,0.26-2.94v-7.67c-5.85,0-9.82,0.11-11.91,0.34v7.33
				c0,1.32,0.09,2.3,0.27,2.94c0.18,0.64,0.49,1.1,0.94,1.37c0.45,0.27,1.13,0.44,2.03,0.51c0.22,0.64,0.34,1.62,0.34,2.94
				c-1.67-0.1-3.94-0.14-6.8-0.14c-3.05,0-5.58,0.05-7.57,0.14c0-1,0.13-1.98,0.39-2.94c0.9-0.06,1.57-0.23,2-0.51
				c0.43-0.27,0.74-0.73,0.92-1.37c0.18-0.64,0.27-1.62,0.27-2.94V98.74c0-1.32-0.09-2.29-0.27-2.92c-0.18-0.63-0.48-1.07-0.92-1.33
				c-0.43-0.26-1.1-0.43-2-0.53c-0.26-0.77-0.39-1.75-0.39-2.94c1.67,0.1,4.11,0.14,7.33,0.14c2.76,0,5.11-0.05,7.04-0.14
				c0,1.25-0.11,2.23-0.34,2.94c-0.9,0.1-1.58,0.27-2.03,0.53c-0.45,0.26-0.76,0.71-0.94,1.35c-0.18,0.64-0.27,1.61-0.27,2.89v6.75
				h11.91v-6.75c0-1.28-0.09-2.25-0.26-2.89c-0.18-0.64-0.48-1.09-0.92-1.35c-0.43-0.26-1.12-0.43-2.05-0.53
				c-0.23-0.68-0.34-1.66-0.34-2.94c1.7,0.1,4.13,0.14,7.28,0.14c2.77,0,5.11-0.05,7.04-0.14c0,0.71-0.02,1.27-0.05,1.69
				c-0.03,0.42-0.13,0.84-0.29,1.25c-0.9,0.1-1.58,0.27-2.02,0.53c-0.45,0.26-0.76,0.71-0.94,1.35c-0.18,0.64-0.27,1.61-0.27,2.89
				v17.41C224.98,117.46,225.08,118.44,225.27,119.09z"/>
			<path class="st1" d="M240,122.05c-2.46-1.43-4.36-3.42-5.69-5.98c-1.33-2.56-2-5.47-2-8.75c0-3.28,0.7-6.17,2.1-8.68
				c1.4-2.51,3.33-4.45,5.81-5.83c2.47-1.38,5.27-2.07,8.39-2.07c3.18,0,6.01,0.68,8.49,2.03c2.47,1.35,4.4,3.26,5.79,5.74
				c1.38,2.48,2.07,5.32,2.07,8.53c0,3.28-0.68,6.22-2.05,8.82c-1.37,2.6-3.29,4.65-5.76,6.12c-2.48,1.48-5.32,2.22-8.53,2.22
				C245.33,124.2,242.46,123.48,240,122.05z M253.65,119.47c1.21-1.09,2.13-2.62,2.77-4.58c0.64-1.96,0.96-4.21,0.96-6.75
				c0-2.67-0.41-5.09-1.23-7.28c-0.82-2.18-1.95-3.92-3.4-5.21c-1.45-1.28-3.1-1.93-4.97-1.93c-1.57,0-2.96,0.5-4.17,1.49
				c-1.21,1-2.14,2.43-2.8,4.32c-0.66,1.88-0.99,4.07-0.99,6.58c0,2.7,0.36,5.19,1.08,7.47c0.72,2.28,1.81,4.11,3.26,5.47
				c1.45,1.37,3.18,2.05,5.21,2.05C251.02,121.11,252.44,120.57,253.65,119.47z"/>
			<path class="st1" d="M296.08,119.26c0.4,0.5,0.87,0.87,1.4,1.11s1.25,0.39,2.15,0.46c0,1.16-0.13,2.14-0.39,2.94
				c-4.31,0-7.39,0.14-9.26,0.43c-0.9-1.74-1.7-3.42-2.41-5.06l-0.92-2.02c-0.74-1.67-1.44-3.01-2.1-4c-0.66-1-1.52-1.98-2.58-2.94
				l-1.25,0.05l-1.25-0.05v5.69c0,1.42,0.08,2.48,0.24,3.18c0.16,0.71,0.43,1.19,0.82,1.45c0.39,0.26,0.95,0.42,1.69,0.48
				c0.19,0.61,0.29,1.59,0.29,2.94c-1.93-0.1-4.31-0.14-7.14-0.14c-2.6,0-4.84,0.05-6.7,0.14c0-1.25,0.11-2.23,0.34-2.94
				c0.9-0.06,1.57-0.23,2.03-0.51c0.45-0.27,0.76-0.73,0.94-1.37c0.18-0.64,0.27-1.62,0.27-2.94V98.69c0-1.32-0.09-2.3-0.27-2.94
				c-0.18-0.64-0.49-1.09-0.94-1.35c-0.45-0.26-1.14-0.42-2.07-0.48c-0.19-0.77-0.29-1.73-0.29-2.89c2.99,0.1,5.37,0.14,7.14,0.14
				c0.58,0,1.77-0.03,3.57-0.1c2.25-0.06,4.07-0.1,5.45-0.1c3.76,0,6.59,0.8,8.49,2.41c1.9,1.61,2.85,3.68,2.85,6.22
				c0,2.44-0.68,4.48-2.03,6.1c-1.35,1.62-3.17,2.74-5.45,3.35c1.13,0.77,2.05,1.65,2.77,2.63c0.72,0.98,1.76,2.72,3.11,5.23
				C295.17,117.98,295.68,118.76,296.08,119.26z M286.51,105.44c1.41-1.16,2.12-2.83,2.12-5.01c0-2.06-0.54-3.66-1.62-4.8
				s-2.68-1.71-4.8-1.71c-1.03,0-1.95,0.13-2.75,0.39v12.73c0.74,0.1,1.32,0.14,1.74,0.14C283.33,107.18,285.09,106.6,286.51,105.44
				z"/>
			<path class="st1" d="M308.01,123.48c-1.74-0.48-3.49-1.21-5.26-2.17c0.39-1.99,0.58-4.5,0.58-7.52c1.09-0.32,2.54-0.48,4.34-0.48
				c0.16,2.8,0.69,4.78,1.59,5.95c0.9,1.17,2.43,1.76,4.58,1.76c1.8,0,3.14-0.38,4.03-1.13c0.88-0.76,1.33-1.73,1.33-2.92
				c0-0.93-0.27-1.74-0.82-2.41c-0.55-0.68-1.23-1.25-2.05-1.71c-0.82-0.47-1.97-1.05-3.45-1.76c-2.03-0.96-3.66-1.85-4.89-2.65
				c-1.24-0.8-2.31-1.89-3.21-3.25c-0.9-1.37-1.35-3.06-1.35-5.09c0-3.05,0.99-5.38,2.97-6.97c1.98-1.59,4.57-2.39,7.79-2.39
				c1.7,0,3.41,0.21,5.11,0.63c1.7,0.42,3.02,0.92,3.95,1.49c0,3.28,0.1,5.56,0.29,6.85c-0.48,0.26-1.12,0.45-1.91,0.58
				c-0.79,0.13-1.55,0.19-2.29,0.19c-0.42-2.54-1.07-4.29-1.95-5.26c-0.88-0.96-2.08-1.45-3.59-1.45c-1.38,0-2.48,0.32-3.28,0.96
				c-0.8,0.64-1.21,1.56-1.21,2.75c0,1,0.3,1.86,0.89,2.6c0.59,0.74,1.33,1.37,2.22,1.88c0.88,0.51,2.11,1.14,3.69,1.88
				c2.03,0.93,3.68,1.8,4.97,2.6c1.28,0.8,2.38,1.87,3.28,3.21c0.9,1.33,1.35,2.97,1.35,4.89c0,2.89-1.04,5.22-3.11,6.99
				c-2.07,1.77-5.06,2.65-8.94,2.65C311.63,124.2,309.75,123.96,308.01,123.48z"/>
			<path class="st1" d="M356.18,115.91c-0.64,1.96-1.14,4.61-1.5,7.95c-3.15-0.06-6.98-0.1-11.48-0.1c-4.56,0-9.16,0.05-13.79,0.14
				c0-1.29,0.11-2.27,0.34-2.94c0.9-0.06,1.57-0.23,2.03-0.51c0.45-0.27,0.76-0.76,0.94-1.45c0.18-0.69,0.27-1.74,0.27-3.16V98.74
				c0-1.28-0.09-2.25-0.27-2.89c-0.18-0.64-0.49-1.09-0.94-1.35c-0.45-0.26-1.14-0.43-2.07-0.53c-0.19-0.74-0.29-1.72-0.29-2.94
				c2.51,0.1,6.09,0.14,10.75,0.14c6.62,0,11.02-0.05,13.21-0.14c0.22,3.54,0.56,6.24,1.01,8.1c-0.93,0.52-2.12,0.77-3.57,0.77
				c-0.26-1.9-0.9-3.36-1.93-4.39c-1.03-1.03-2.8-1.54-5.3-1.54h-3.37v12.05h1.45c1.77,0,2.97-0.26,3.62-0.77
				c0.64-0.51,0.98-1.48,1.01-2.89c0.93-0.32,2.04-0.48,3.33-0.48c-0.1,1.58-0.14,3.41-0.14,5.5c0,2.25,0.05,4.13,0.14,5.64
				c-1.45,0-2.52-0.13-3.23-0.39c-0.13-1.45-0.52-2.43-1.18-2.97c-0.66-0.53-1.84-0.8-3.54-0.8h-1.45v6.9
				c0,1.38,0.11,2.43,0.34,3.13c0.22,0.71,0.63,1.21,1.21,1.49c0.58,0.29,1.41,0.43,2.51,0.43h0.58c1.64,0,2.94-0.22,3.91-0.68
				c0.96-0.45,1.73-1.11,2.29-1.98c0.56-0.87,1.08-2.09,1.57-3.66C354.28,114.76,355.47,115.23,356.18,115.91z"/>
		</g>
		<g>
			<path class="st1" d="M210.36,26.05c-0.58,0.25-1.29,0.36-2.13,0.32c-0.14-1.17-0.45-2.03-0.92-2.57
				c-0.47-0.54-1.18-0.81-2.13-0.81h-0.95v12.37c0,0.76,0.06,1.31,0.18,1.66c0.12,0.35,0.34,0.6,0.67,0.76
				c0.33,0.15,0.84,0.25,1.53,0.28c0.14,0.34,0.22,0.89,0.22,1.65c-1.08-0.05-2.56-0.08-4.46-0.08c-2.18,0-3.83,0.03-4.94,0.08
				c0-0.61,0.08-1.16,0.24-1.65c0.7-0.04,1.22-0.13,1.57-0.28c0.34-0.15,0.58-0.41,0.73-0.77c0.14-0.36,0.22-0.91,0.22-1.65V23
				h-0.68c-0.74,0-1.33,0.13-1.77,0.38c-0.44,0.25-0.78,0.62-1.01,1.09c-0.23,0.48-0.44,1.11-0.62,1.9c-0.95,0-1.65-0.11-2.08-0.32
				c0.16-0.76,0.3-1.57,0.41-2.44s0.16-1.64,0.16-2.31c1.26,0.05,3.82,0.08,7.69,0.08c3.2,0,5.75-0.03,7.64-0.08
				C209.91,22.68,210.05,24.26,210.36,26.05z"/>
			<path class="st1" d="M227.23,39.71c-1.62-0.05-2.75-0.08-3.38-0.08c-1.75,0-3.02,0.03-3.83,0.08c0-0.72,0.07-1.27,0.22-1.65
				c0.52,0,0.91-0.19,1.17-0.57c0.26-0.38,0.39-1.03,0.39-1.94v-2.94c0-1.08-0.18-1.85-0.53-2.32c-0.35-0.47-0.87-0.7-1.55-0.7
				c-0.74,0-1.36,0.38-1.88,1.15c-0.51,0.77-0.77,1.83-0.77,3.2v1.78c0,0.9,0.12,1.52,0.35,1.85c0.23,0.33,0.63,0.5,1.19,0.5
				c0.11,0.23,0.18,0.47,0.2,0.72c0.03,0.24,0.04,0.55,0.04,0.93c-0.81-0.05-2.04-0.08-3.7-0.08c-1.82,0-3.12,0.03-3.92,0.08
				c0-0.74,0.06-1.29,0.19-1.65c0.7,0,1.18-0.17,1.43-0.5c0.25-0.33,0.38-0.95,0.38-1.85v-11.1c0-0.68-0.13-1.17-0.39-1.44
				s-0.81-0.44-1.63-0.47c0-0.65,0.1-1.16,0.3-1.54c0.86,0,1.78-0.09,2.74-0.28c0.96-0.19,1.64-0.39,2.04-0.61
				c0.52,0.22,0.78,0.69,0.78,1.43v6.78c0,0.49-0.09,1.03-0.27,1.62c0.04-0.05,0.12-0.22,0.26-0.5c0.14-0.28,0.3-0.54,0.5-0.77
				c0.41-0.47,0.95-0.86,1.61-1.19c0.66-0.32,1.38-0.49,2.17-0.49c1.24,0,2.27,0.36,3.08,1.07c0.81,0.71,1.22,1.82,1.22,3.33v4.16
				c0,0.88,0.1,1.49,0.3,1.84c0.2,0.34,0.55,0.51,1.05,0.51C227.15,38.46,227.23,39.01,227.23,39.71z"/>
			<path class="st1" d="M240.17,37.12c0.13,0.27,0.2,0.54,0.22,0.81c-1.31,1.3-3.07,1.94-5.26,1.94c-2.18,0-3.81-0.58-4.89-1.75
				c-1.08-1.17-1.62-2.7-1.62-4.59c0-1.26,0.26-2.39,0.77-3.38c0.51-0.99,1.24-1.76,2.17-2.31s2.03-0.82,3.29-0.82
				c1.85,0,3.24,0.52,4.16,1.55s1.42,2.43,1.51,4.2c-0.14,0.58-0.37,1-0.67,1.27c-2.75,0-5.17,0.05-7.24,0.16
				c0.16,1.13,0.54,2.02,1.13,2.67c0.59,0.65,1.45,0.97,2.56,0.97c0.63,0,1.25-0.11,1.86-0.34c0.61-0.23,1.12-0.54,1.54-0.93
				C239.89,36.67,240.04,36.85,240.17,37.12z M233.2,29.64c-0.41,0.63-0.64,1.58-0.67,2.83h4.32c0-1.21-0.17-2.14-0.53-2.79
				c-0.35-0.66-0.86-0.99-1.53-0.99C234.15,28.69,233.62,29.01,233.2,29.64z"/>
		</g>
		<g>
			<path class="st1" d="M238.01,76.06c0.18,0.59,0.47,1.02,0.89,1.27c0.41,0.25,1.04,0.41,1.87,0.47c0.18,0.62,0.27,1.53,0.27,2.71
				c-1.54-0.09-3.63-0.13-6.27-0.13c-2.79,0-5.1,0.04-6.94,0.13c0-1.04,0.1-1.94,0.31-2.71c0.83-0.06,1.45-0.22,1.87-0.47
				c0.41-0.25,0.7-0.67,0.87-1.27c0.16-0.59,0.24-1.5,0.24-2.71v-7.07c-5.4,0-9.06,0.1-10.99,0.31v6.76c0,1.22,0.08,2.12,0.25,2.71
				c0.16,0.59,0.45,1.02,0.87,1.27c0.42,0.25,1.04,0.41,1.87,0.47c0.21,0.59,0.31,1.5,0.31,2.71c-1.54-0.09-3.63-0.13-6.27-0.13
				c-2.82,0-5.15,0.04-6.98,0.13c0-0.92,0.12-1.82,0.36-2.71c0.83-0.06,1.45-0.22,1.85-0.47c0.4-0.25,0.68-0.67,0.85-1.27
				c0.16-0.59,0.24-1.5,0.24-2.71V57.29c0-1.22-0.08-2.11-0.24-2.69c-0.16-0.58-0.44-0.99-0.85-1.22c-0.4-0.24-1.02-0.4-1.85-0.49
				c-0.24-0.71-0.36-1.62-0.36-2.71c1.54,0.09,3.8,0.13,6.76,0.13c2.55,0,4.72-0.04,6.5-0.13c0,1.16-0.1,2.06-0.31,2.71
				c-0.83,0.09-1.45,0.25-1.87,0.49c-0.42,0.24-0.7,0.65-0.87,1.25c-0.16,0.59-0.25,1.48-0.25,2.67v6.23h10.99v-6.23
				c0-1.19-0.08-2.08-0.24-2.67c-0.16-0.59-0.45-1.01-0.85-1.25c-0.4-0.24-1.03-0.4-1.89-0.49c-0.21-0.62-0.31-1.53-0.31-2.71
				c1.57,0.09,3.81,0.13,6.72,0.13c2.55,0,4.72-0.04,6.5-0.13c0,0.65-0.02,1.17-0.04,1.56c-0.03,0.39-0.12,0.77-0.27,1.16
				c-0.83,0.09-1.45,0.25-1.87,0.49c-0.41,0.24-0.7,0.65-0.87,1.25c-0.16,0.59-0.25,1.48-0.25,2.67v16.06
				C237.74,74.57,237.83,75.47,238.01,76.06z"/>
			<path class="st1" d="M269.51,73.13c-0.59,1.81-1.05,4.26-1.38,7.34c-2.91-0.06-6.44-0.09-10.59-0.09
				c-4.21,0-8.45,0.04-12.72,0.13c0-1.19,0.1-2.09,0.31-2.71c0.83-0.06,1.45-0.22,1.87-0.47c0.41-0.25,0.7-0.7,0.87-1.33
				c0.16-0.64,0.25-1.61,0.25-2.91V57.29c0-1.19-0.08-2.08-0.25-2.67c-0.16-0.59-0.45-1.01-0.87-1.25c-0.42-0.24-1.05-0.4-1.91-0.49
				c-0.18-0.68-0.27-1.59-0.27-2.71c2.31,0.09,5.62,0.13,9.92,0.13c6.11,0,10.17-0.04,12.19-0.13c0.21,3.26,0.52,5.75,0.93,7.47
				c-0.86,0.47-1.96,0.71-3.29,0.71c-0.24-1.75-0.83-3.1-1.78-4.05c-0.95-0.95-2.58-1.42-4.89-1.42h-3.11v11.12h1.33
				c1.63,0,2.74-0.24,3.34-0.71c0.59-0.47,0.9-1.36,0.93-2.67c0.86-0.3,1.88-0.44,3.07-0.44c-0.09,1.45-0.13,3.14-0.13,5.07
				c0,2.08,0.04,3.81,0.13,5.21c-1.34,0-2.33-0.12-2.98-0.36c-0.12-1.33-0.48-2.25-1.09-2.74c-0.61-0.49-1.7-0.73-3.27-0.73h-1.33
				v6.36c0,1.28,0.1,2.24,0.31,2.89c0.21,0.65,0.58,1.11,1.11,1.38c0.53,0.27,1.31,0.4,2.31,0.4h0.53c1.51,0,2.71-0.21,3.6-0.62
				c0.89-0.41,1.59-1.02,2.11-1.82c0.52-0.8,1-1.93,1.45-3.38C267.76,72.07,268.86,72.5,269.51,73.13z"/>
			<path class="st1" d="M277.69,80.11c-1.6-0.44-3.22-1.11-4.85-2c0.36-1.84,0.53-4.15,0.53-6.94c1.01-0.3,2.34-0.44,4-0.44
				c0.15,2.58,0.64,4.41,1.47,5.49s2.24,1.62,4.23,1.62c1.66,0,2.9-0.35,3.71-1.05c0.82-0.7,1.22-1.59,1.22-2.69
				c0-0.86-0.25-1.6-0.76-2.23c-0.5-0.62-1.13-1.15-1.89-1.58c-0.76-0.43-1.82-0.97-3.18-1.62c-1.87-0.89-3.37-1.71-4.52-2.45
				c-1.14-0.74-2.13-1.74-2.96-3c-0.83-1.26-1.25-2.83-1.25-4.69c0-2.82,0.91-4.96,2.74-6.43c1.82-1.47,4.22-2.2,7.19-2.2
				c1.57,0,3.14,0.19,4.72,0.58c1.57,0.39,2.79,0.85,3.65,1.38c0,3.02,0.09,5.13,0.27,6.32c-0.44,0.24-1.03,0.42-1.76,0.53
				c-0.73,0.12-1.43,0.18-2.11,0.18c-0.39-2.34-0.99-3.96-1.8-4.85c-0.82-0.89-1.92-1.33-3.31-1.33c-1.28,0-2.28,0.3-3.02,0.89
				c-0.74,0.59-1.11,1.44-1.11,2.54c0,0.92,0.27,1.72,0.82,2.4c0.55,0.68,1.23,1.26,2.05,1.73c0.82,0.47,1.95,1.05,3.4,1.74
				c1.87,0.86,3.4,1.66,4.58,2.4c1.19,0.74,2.2,1.73,3.03,2.96c0.83,1.23,1.25,2.74,1.25,4.52c0,2.67-0.96,4.82-2.87,6.45
				c-1.91,1.63-4.66,2.45-8.25,2.45C281.03,80.78,279.3,80.56,277.69,80.11z"/>
			<path class="st1" d="M325.3,76.06c0.18,0.59,0.47,1.02,0.89,1.27c0.41,0.25,1.04,0.41,1.87,0.47c0.18,0.62,0.27,1.53,0.27,2.71
				c-1.54-0.09-3.63-0.13-6.27-0.13c-2.79,0-5.1,0.04-6.94,0.13c0-1.04,0.1-1.94,0.31-2.71c0.83-0.06,1.45-0.22,1.87-0.47
				c0.41-0.25,0.7-0.67,0.87-1.27c0.16-0.59,0.24-1.5,0.24-2.71v-7.07c-5.4,0-9.06,0.1-10.99,0.31v6.76c0,1.22,0.08,2.12,0.25,2.71
				c0.16,0.59,0.45,1.02,0.87,1.27c0.42,0.25,1.04,0.41,1.87,0.47c0.21,0.59,0.31,1.5,0.31,2.71c-1.54-0.09-3.63-0.13-6.27-0.13
				c-2.82,0-5.15,0.04-6.99,0.13c0-0.92,0.12-1.82,0.36-2.71c0.83-0.06,1.45-0.22,1.85-0.47c0.4-0.25,0.68-0.67,0.85-1.27
				c0.16-0.59,0.25-1.5,0.25-2.71V57.29c0-1.22-0.08-2.11-0.25-2.69c-0.16-0.58-0.44-0.99-0.85-1.22c-0.4-0.24-1.02-0.4-1.85-0.49
				c-0.24-0.71-0.36-1.62-0.36-2.71c1.54,0.09,3.8,0.13,6.76,0.13c2.55,0,4.72-0.04,6.5-0.13c0,1.16-0.1,2.06-0.31,2.71
				c-0.83,0.09-1.45,0.25-1.87,0.49c-0.42,0.24-0.7,0.65-0.87,1.25c-0.16,0.59-0.25,1.48-0.25,2.67v6.23h10.99v-6.23
				c0-1.19-0.08-2.08-0.24-2.67c-0.16-0.59-0.45-1.01-0.85-1.25c-0.4-0.24-1.03-0.4-1.89-0.49c-0.21-0.62-0.31-1.53-0.31-2.71
				c1.57,0.09,3.81,0.13,6.72,0.13c2.55,0,4.72-0.04,6.5-0.13c0,0.65-0.02,1.17-0.04,1.56c-0.03,0.39-0.12,0.77-0.27,1.16
				c-0.83,0.09-1.45,0.25-1.87,0.49c-0.41,0.24-0.7,0.65-0.87,1.25c-0.16,0.59-0.25,1.48-0.25,2.67v16.06
				C325.03,74.57,325.12,75.47,325.3,76.06z"/>
			<path class="st1" d="M335.15,54.6c-0.16-0.58-0.44-0.99-0.85-1.22c-0.4-0.24-1.02-0.4-1.85-0.49c-0.24-0.71-0.36-1.62-0.36-2.71
				c1.54,0.09,3.8,0.13,6.76,0.13c2.55,0,4.71-0.04,6.5-0.13c0,1.16-0.1,2.06-0.31,2.71c-0.83,0.09-1.45,0.25-1.87,0.49
				c-0.42,0.24-0.7,0.65-0.87,1.25c-0.16,0.59-0.25,1.48-0.25,2.67v16.06c0,1.22,0.08,2.12,0.25,2.71c0.16,0.59,0.45,1.02,0.87,1.27
				c0.42,0.25,1.04,0.41,1.87,0.47c0.21,0.59,0.31,1.5,0.31,2.71c-1.54-0.09-3.63-0.13-6.27-0.13c-2.82,0-5.15,0.04-6.99,0.13
				c0-0.92,0.12-1.82,0.36-2.71c0.83-0.06,1.45-0.22,1.85-0.47c0.4-0.25,0.68-0.67,0.85-1.27c0.16-0.59,0.25-1.5,0.25-2.71V57.29
				C335.4,56.07,335.32,55.18,335.15,54.6z"/>
			<path class="st1" d="M374.39,76.22c0.37,0.46,0.8,0.8,1.29,1.02c0.49,0.22,1.15,0.36,1.98,0.42c0,1.07-0.12,1.97-0.36,2.71
				c-3.97,0-6.82,0.13-8.54,0.4c-0.83-1.6-1.57-3.16-2.23-4.67l-0.85-1.87c-0.68-1.54-1.33-2.77-1.94-3.69
				c-0.61-0.92-1.4-1.82-2.38-2.71l-1.16,0.04l-1.16-0.04v5.25c0,1.31,0.07,2.28,0.22,2.94c0.15,0.65,0.4,1.1,0.76,1.33
				c0.36,0.24,0.88,0.39,1.56,0.45c0.18,0.56,0.27,1.47,0.27,2.71c-1.78-0.09-3.98-0.13-6.59-0.13c-2.4,0-4.46,0.04-6.18,0.13
				c0-1.16,0.1-2.06,0.31-2.71c0.83-0.06,1.45-0.22,1.87-0.47c0.41-0.25,0.7-0.67,0.87-1.27c0.16-0.59,0.25-1.5,0.25-2.71V57.24
				c0-1.22-0.08-2.12-0.25-2.71c-0.16-0.59-0.45-1.01-0.87-1.25c-0.42-0.24-1.05-0.38-1.91-0.44c-0.18-0.71-0.27-1.6-0.27-2.67
				c2.76,0.09,4.95,0.13,6.59,0.13c0.53,0,1.63-0.03,3.29-0.09c2.08-0.06,3.75-0.09,5.03-0.09c3.47,0,6.08,0.74,7.83,2.22
				c1.75,1.48,2.63,3.4,2.63,5.74c0,2.25-0.62,4.13-1.87,5.63c-1.25,1.5-2.92,2.53-5.03,3.09c1.04,0.71,1.89,1.52,2.56,2.42
				c0.67,0.91,1.62,2.51,2.87,4.83C373.55,75.04,374.02,75.76,374.39,76.22z M365.56,63.47c1.31-1.07,1.96-2.61,1.96-4.63
				c0-1.9-0.5-3.37-1.49-4.43c-0.99-1.05-2.47-1.58-4.43-1.58c-0.95,0-1.8,0.12-2.54,0.36v11.75c0.68,0.09,1.22,0.13,1.6,0.13
				C362.63,65.07,364.26,64.54,365.56,63.47z"/>
			<path class="st1" d="M405.02,73.13c-0.59,1.81-1.05,4.26-1.38,7.34c-2.91-0.06-6.44-0.09-10.59-0.09
				c-4.21,0-8.45,0.04-12.72,0.13c0-1.19,0.1-2.09,0.31-2.71c0.83-0.06,1.45-0.22,1.87-0.47c0.41-0.25,0.7-0.7,0.87-1.33
				c0.16-0.64,0.25-1.61,0.25-2.91V57.29c0-1.19-0.08-2.08-0.25-2.67c-0.16-0.59-0.45-1.01-0.87-1.25c-0.42-0.24-1.05-0.4-1.91-0.49
				c-0.18-0.68-0.27-1.59-0.27-2.71c2.31,0.09,5.62,0.13,9.92,0.13c6.11,0,10.17-0.04,12.19-0.13c0.21,3.26,0.52,5.75,0.93,7.47
				c-0.86,0.47-1.96,0.71-3.29,0.71c-0.24-1.75-0.83-3.1-1.78-4.05c-0.95-0.95-2.58-1.42-4.89-1.42h-3.11v11.12h1.33
				c1.63,0,2.74-0.24,3.34-0.71c0.59-0.47,0.9-1.36,0.93-2.67c0.86-0.3,1.88-0.44,3.07-0.44c-0.09,1.45-0.13,3.14-0.13,5.07
				c0,2.08,0.04,3.81,0.13,5.21c-1.34,0-2.33-0.12-2.98-0.36c-0.12-1.33-0.48-2.25-1.09-2.74s-1.7-0.73-3.27-0.73h-1.33v6.36
				c0,1.28,0.1,2.24,0.31,2.89c0.21,0.65,0.58,1.11,1.11,1.38c0.53,0.27,1.31,0.4,2.31,0.4h0.53c1.51,0,2.71-0.21,3.6-0.62
				c0.89-0.41,1.59-1.02,2.11-1.82c0.52-0.8,1-1.93,1.45-3.38C403.27,72.07,404.37,72.5,405.02,73.13z"/>
			<path class="st1" d="M207.2,76.41c-0.07-0.41-0.21-0.82-0.43-1.22c-0.22-0.41-0.48-0.74-0.76-0.98l-0.28-0.25l-0.33,0.19
				c-1.17,0.68-2.38,1.22-3.61,1.58c-1.22,0.37-2.43,0.55-3.58,0.55c-1.99,0-3.71-0.54-5.11-1.61c-1.41-1.08-2.49-2.58-3.2-4.47
				c-0.72-1.92-1.09-4.13-1.09-6.59c0-3.12,0.66-5.75,1.95-7.82c1.26-2.02,3.17-3,5.82-3c1.65,0,2.87,0.46,3.71,1.39
				c0.85,0.94,1.31,2.66,1.37,5.11l0.01,0.51h0.51c1.69,0,2.88-0.19,3.64-0.59l0.28-0.15v-0.32c0-2.87,0.16-5.13,0.48-6.74l0.08-0.4
				l-0.37-0.18c-3.26-1.56-6.62-2.35-9.98-2.35c-2.72,0-5.29,0.61-7.63,1.8c-2.36,1.2-4.28,3-5.71,5.36
				c-1.43,2.35-2.15,5.21-2.15,8.5c0,3.1,0.64,5.9,1.91,8.3c1.28,2.42,3.09,4.33,5.38,5.68c2.29,1.35,4.94,2.04,7.88,2.04
				c2.23,0,4.26-0.34,6.03-1c1.76-0.66,3.44-1.63,4.98-2.86l0.24-0.19L207.2,76.41z"/>
		</g>
	</g>
</g>
</svg>
